PathFileType	4	(X/Y/Z)	Walk5.trc
DataRate	CameraRate	NumFrames	NumMarkers	Units	OrigDataRate	OrigDataStartFrame	OrigNumFrames
200.000000	200.000000	4	58	mm	200.000000	489	695
Frame#	Times		LToe		RBHD		LWRR		LElbow		LACR1		C7		RMT5		RToe		RTB2		LCAR		RTB3		LWRU		RCAR		RMT1		LElbowM		RFA1		RMMAL		LTH3		LASI		RCAL		RWRU		RLFC		LTH4		RElbow		LTB2		LMMAL		LPSI		RASI		RElbowM		LCAL		RPSI		LLFC		RTH3		LBHD		T10		LTH2		RFHD		RBack		LMT5		LUA1		RUA1		LFHD		RLMAL		RMFC		LLMAL		LMFC		RACR1		LTB1		RWRR		LTB4		LTB3		RTH4		RTB1		LMT1		RTH1		RTB4		RTH2		LTH1
			X1	Y1	Z1	X2	Y2	Z2	X3	Y3	Z3	X4	Y4	Z4	X5	Y5	Z5	X6	Y6	Z6	X7	Y7	Z7	X8	Y8	Z8	X9	Y9	Z9	X10	Y10	Z10	X11	Y11	Z11	X12	Y12	Z12	X13	Y13	Z13	X14	Y14	Z14	X15	Y15	Z15	X16	Y16	Z16	X17	Y17	Z17	X18	Y18	Z18	X19	Y19	Z19	X20	Y20	Z20	X21	Y21	Z21	X22	Y22	Z22	X23	Y23	Z23	X24	Y24	Z24	X25	Y25	Z25	X26	Y26	Z26	X27	Y27	Z27	X28	Y28	Z28	X29	Y29	Z29	X30	Y30	Z30	X31	Y31	Z31	X32	Y32	Z32	X33	Y33	Z33	X34	Y34	Z34	X35	Y35	Z35	X36	Y36	Z36	X37	Y37	Z37	X38	Y38	Z38	X39	Y39	Z39	X40	Y40	Z40	X41	Y41	Z41	X42	Y42	Z42	X43	Y43	Z43	X44	Y44	Z44	X45	Y45	Z45	X46	Y46	Z46	X47	Y47	Z47	X48	Y48	Z48	X49	Y49	Z49	X50	Y50	Z50	X51	Y51	Z51	X52	Y52	Z52	X53	Y53	Z53	X54	Y54	Z54	X55	Y55	Z55	X56	Y56	Z56	X57	Y57	Z57	X58	Y58	Z58

489	2.445	-214.76	27.323	-41.49	-108.21	1583.5	-39.409	116.56	832.84	-233.64	-46.653	1059.5	-279.5	-50.115	1396.4	-144.28	-141.72	1453.4	25.009	251.81	30.512	135.31	337.29	63.198	101.53	132.66	295.96	131.16	22.489	934.94	-266.35	152.21	208.33	58.596	184.96	852.37	-209.19	-84.471	751.24	281.26	289.58	48.596	63.757	-95.15	1034.3	-213.27	-157.06	897.4	289.32	160.76	75.006	34.574	-168.72	554.41	-117.58	-39.838	1014.4	-151.1	83.49	28.207	49.816	-149.62	777.62	254.39	59.137	521.56	140.76	-146.04	644.71	-136.67	-172.62	1058.2	293.44	-260.6	279.42	-87.493	-389.1	82.339	15.533	-229.6	1010.9	-19.4	-29.943	962.27	158.64	-207.92	1067.5	216.25	-481.6	66.493	-18.086	-227.86	1011.8	49.308	-202.37	494.21	-104.91	43.294	564.09	144.83	-107.19	1575.8	97.253	-216.08	1197.5	19.266	-89.83	638.39	-90.547	67.973	1622.1	-8.3782	-164.22	1339.4	172.24	-310.68	22.568	-96.912	-41.231	1198.1	-231.43	-85.325	1212.6	259.2	68.064	1619.6	66.412	132.2	65.34	112.33	44.949	482.25	16.991	-413.69	80.373	-67.347	-226.38	484.28	20.707	-32.879	1391.3	180.64	-212.26	359.46	-18.041	-71.011	799.3	235.14	-260.24	280.36	-15.191	-307.18	200.48	-14.922	68.747	678.86	125.12	131.84	393.7	59.882	-268.1	28.838	-16.921	-22.789	737.91	183.79	143.32	296.9	57.243	13.96	650.75	166.06	-126.02	732.69	-157.25
490	2.45	-214.68	26.981	-41.304	-102.71	1583.6	-38.559	120.37	832.27	-232.69	-42.149	1059.4	-278.63	-44.419	1396.6	-143.64	-136.07	1453.4	25.706	252.93	28.805	135.21	338.76	60.076	100.38	136.88	295.66	130.93	26.567	934.65	-265.39	154.83	207.79	58.272	188.85	851.62	-208.34	-78.709	750.72	281.79	290.59	46.01	62.998	-90.605	1034.5	-212.28	-151.12	896.97	289.72	161.94	74.394	34.336	-162.28	554.04	-117.27	-33.601	1014.6	-150.61	83.906	28.874	50.079	-143.86	777.16	254.91	65.202	522.03	140.64	-139.87	644.43	-136.24	-166.52	1057.7	293.69	-256.54	279.87	-87.535	-387.76	84.639	15.19	-223.77	1011	-19.208	-24.082	962.49	158.94	-201.87	1067.1	216.52	-480.47	70.348	-18.488	-222.03	1012	49.532	-196.01	494	-104.57	49.353	564.6	144.67	-101.6	1575.8	98.101	-210.38	1197.6	19.623	-83.576	638.16	-90.196	73.472	1622.2	-7.598	-158.56	1339.1	172.78	-310.57	22.805	-96.691	-36.127	1198.1	-230.67	-79.467	1212.3	259.64	73.608	1619.7	67.188	133.67	65.207	112.31	50.054	482.57	17.156	-412.34	82.944	-67.7	-220.22	484.02	20.66	-27.302	1391.2	181.3	-207.22	359.17	-17.947	-65.163	798.73	235.63	-256.27	280.75	-15.203	-304.34	201.53	-15.068	74.848	679.34	124.74	136.37	393.35	59.519	-267.97	28.77	-17.018	-16.549	738.49	183.54	146.85	296.43	56.892	20.059	651.28	165.77	-120.07	732.49	-156.7
491	2.455	-214.64	26.674	-41.083	-97.188	1583.8	-37.71	124	831.71	-231.77	-37.709	1059.5	-277.74	-38.692	1396.8	-142.98	-130.41	1453.6	26.39	253.91	27.343	135.22	340.06	57.209	99.377	140.94	295.4	130.72	30.517	934.44	-264.44	157.32	207.3	57.972	192.58	850.85	-207.55	-72.922	750.29	282.33	291.46	43.671	62.331	-86.124	1034.8	-211.27	-145.15	896.65	290.12	162.98	73.872	34.096	-155.54	553.68	-116.97	-27.364	1014.9	-150.08	84.283	29.485	50.319	-138.08	776.8	255.42	71.206	522.54	140.54	-133.48	644.18	-135.81	-160.39	1057.4	293.93	-252.23	280.4	-87.627	-386.23	87.138	14.798	-217.95	1011.1	-19.024	-18.241	962.82	159.26	-195.79	1066.7	216.77	-479.12	74.519	-18.919	-216.21	1012.3	49.752	-189.32	493.81	-104.25	55.369	565.17	144.54	-95.998	1575.9	98.947	-204.68	1197.7	19.963	-77.099	638	-89.831	78.992	1622.5	-6.8105	-152.9	1339	173.32	-310.42	23.119	-96.467	-31.027	1198.2	-229.89	-73.584	1212.1	260.07	79.169	1619.9	67.972	134.97	65.124	112.26	55.105	482.95	17.318	-410.8	85.727	-68.096	-213.74	483.74	20.558	-21.723	1391.2	181.94	-201.86	358.91	-17.91	-59.277	798.25	236.12	-252.03	281.23	-15.264	-301.25	202.71	-15.263	80.898	679.88	124.35	140.78	393.05	59.191	-267.83	28.697	-17.125	-10.288	739.16	183.37	150.27	296	56.573	26.16	651.88	165.54	-113.95	732.34	-156.13
492	2.46	-214.66	26.407	-40.825	-91.649	1584.1	-36.867	127.46	831.16	-230.91	-33.333	1059.6	-276.83	-32.941	1397.1	-142.31	-124.74	1453.8	27.059	254.75	26.123	135.28	341.22	54.598	98.513	144.83	295.18	130.52	34.339	934.29	-263.5	159.69	206.87	57.694	196.15	850.04	-206.81	-67.109	749.96	282.89	292.22	41.582	61.746	-81.706	1035.3	-210.22	-139.14	896.41	290.52	163.89	73.434	33.853	-148.5	553.33	-116.66	-21.135	1015.3	-149.52	84.624	30.033	50.533	-132.28	776.53	255.94	77.123	523.07	140.45	-126.86	643.94	-135.37	-154.23	1057.2	294.16	-247.65	281.01	-87.772	-384.48	89.837	14.35	-212.15	1011.3	-18.846	-12.422	963.27	159.6	-189.66	1066.5	217	-477.52	79.01	-19.387	-210.4	1012.7	49.971	-182.29	493.62	-103.95	61.317	565.79	144.44	-90.38	1576.1	99.789	-198.99	1197.9	20.291	-70.393	637.91	-89.447	84.532	1622.9	-6.0178	-147.24	1339	173.85	-310.22	23.518	-96.245	-25.928	1198.4	-229.08	-67.676	1212	260.48	84.746	1620.2	68.764	136.11	65.088	112.2	60.092	483.38	17.471	-409.05	88.726	-68.539	-206.93	483.43	20.406	-16.142	1391.3	182.58	-196.17	358.68	-17.929	-53.355	797.85	236.62	-247.5	281.78	-15.378	-297.92	204.01	-15.512	86.889	680.45	123.97	145.07	392.78	58.895	-267.7	28.617	-17.239	-4.0187	739.88	183.28	153.56	295.62	56.286	32.243	652.52	165.39	-107.66	732.22	-155.52
